<svg width="1024" height="1024" viewBox="0 0 1024 1024" xmlns="http://www.w3.org/2000/svg"><defs>
<linearGradient id="tileGrad" x1="0" y1="0" x2="0" y2="1"><stop offset="0" stop-color="#63B3FF"/><stop offset="0.55" stop-color="#2E7FF2"/><stop offset="1" stop-color="#0F5CD6"/></linearGradient>
<linearGradient id="gloss" x1="0" y1="0" x2="0" y2="1"><stop offset="0" stop-color="#FFFFFF" stop-opacity="0.38"/><stop offset="1" stop-color="#FFFFFF" stop-opacity="0"/></linearGradient>
<filter id="soft" x="-30%" y="-30%" width="160%" height="160%"><feGaussianBlur stdDeviation="16"/></filter>
<clipPath id="tileClip"><rect x="0" y="0" width="1024" height="1024" rx="232"/></clipPath>
</defs><rect x="0" y="0" width="1024" height="1024" rx="232" fill="url(#tileGrad)"/><g clip-path="url(#tileClip)"><rect x="0" y="0" width="1024" height="430" fill="url(#gloss)"/><circle cx="512" cy="410" r="335" fill="none" stroke="#FFFFFF" stroke-opacity="0.38" stroke-width="5"/><circle cx="512" cy="410" r="245" fill="none" stroke="#FFFFFF" stroke-opacity="0.24" stroke-width="4"/></g><g transform="translate(212,84) scale(1.2766)"><g filter="url(#soft)" opacity="0.42" transform="translate(0,24)"><path d="M2.65188 2.1899C-0.630695 5.47248 -0.995426 113.797 2.28715 121.821C3.74607 125.104 35.8423 149.906 74.5038 176.531C148.179 227.958 159.121 237.806 170.428 260.054L177.358 273.914L194.135 252.76C203.254 241.088 212.372 228.323 214.196 224.311C228.055 197.685 220.396 158.659 196.324 132.763C181.735 117.08 23.0768 4.37828 11.4054 1.09571C8.12283 0.366249 4.1108 0.73098 2.65188 2.1899Z" fill="#000000"/><path d="M467.348 2.1899C470.631 5.47248 470.995 113.797 467.713 121.821C466.254 125.104 434.158 149.906 395.496 176.531C321.821 227.958 310.879 237.806 299.572 260.054L292.642 273.914L275.865 252.76C266.746 241.088 257.628 228.323 255.804 224.311C241.945 197.685 249.604 158.659 273.676 132.763C288.265 117.08 446.923 4.37828 458.595 1.09571C461.877 0.366249 465.889 0.73098 467.348 2.1899Z" fill="#000000"/><path d="M217.479 291.602C187.396 324.802 187 326.002 187 420.002V494.002C187 499.525 191.477 504.002 197 504.002H234.5H272C277.523 504.002 282 499.525 282 494.002V418.002C282 351.202 280.812 329.602 276.458 322.002C269.729 310.002 239.25 274.002 236.083 274.002C234.5 274.002 226.187 282.002 217.479 291.602Z" fill="#000000"/></g><path d="M2.65188 2.1899C-0.630695 5.47248 -0.995426 113.797 2.28715 121.821C3.74607 125.104 35.8423 149.906 74.5038 176.531C148.179 227.958 159.121 237.806 170.428 260.054L177.358 273.914L194.135 252.76C203.254 241.088 212.372 228.323 214.196 224.311C228.055 197.685 220.396 158.659 196.324 132.763C181.735 117.08 23.0768 4.37828 11.4054 1.09571C8.12283 0.366249 4.1108 0.73098 2.65188 2.1899Z" fill="#000000"/><path d="M467.348 2.1899C470.631 5.47248 470.995 113.797 467.713 121.821C466.254 125.104 434.158 149.906 395.496 176.531C321.821 227.958 310.879 237.806 299.572 260.054L292.642 273.914L275.865 252.76C266.746 241.088 257.628 228.323 255.804 224.311C241.945 197.685 249.604 158.659 273.676 132.763C288.265 117.08 446.923 4.37828 458.595 1.09571C461.877 0.366249 465.889 0.73098 467.348 2.1899Z" fill="#000000"/><path d="M217.479 291.602C187.396 324.802 187 326.002 187 420.002V494.002C187 499.525 191.477 504.002 197 504.002H234.5H272C277.523 504.002 282 499.525 282 494.002V418.002C282 351.202 280.812 329.602 276.458 322.002C269.729 310.002 239.25 274.002 236.083 274.002C234.5 274.002 226.187 282.002 217.479 291.602Z" fill="#000000"/></g><rect x="26" y="26" width="972" height="972" rx="210" fill="none" stroke="#FFFFFF" stroke-opacity="0.7" stroke-width="7"/><g filter="url(#soft)" opacity="0.35"><rect x="276" y="868" width="480" height="150" rx="75" fill="#04102E"/></g><rect x="272" y="862" width="480" height="150" rx="75" fill="#FFFFFF"/><text x="517" y="968" text-anchor="middle" font-family="Verdana, sans-serif" font-size="88" font-weight="bold" letter-spacing="10" fill="#2E7FF2">BETA</text></svg>